<svg xmlns="http://www.w3.org/2000/svg" xmlns:xlink="http://www.w3.org/1999/xlink" width="18" height="18" viewBox="0 0 18 18">
  <defs>
    <clipPath id="clip-path">
      <circle id="Ellipse_6" data-name="Ellipse 6" cx="9" cy="9" r="9" transform="translate(1251 49)" fill="#fff" stroke="#707070" stroke-width="1"/>
    </clipPath>
  </defs>
  <g id="Mask_Group_2" data-name="Mask Group 2" transform="translate(-1251 -49)" clip-path="url(#clip-path)">
    <g id="Group_1" data-name="Group 1" transform="translate(-77.665 -58.452)">
      <rect id="Rectangle_5" data-name="Rectangle 5" width="20" height="20" transform="translate(1327.666 106.452)" fill="#fff"/>
      <path id="Path_6" data-name="Path 6" d="M70.981,39.59a9.119,9.119,0,0,1,8.142,5H62.84A9.119,9.119,0,0,1,70.981,39.59Z" transform="translate(1266.669 67.605)" fill="#f93"/>
      <path id="Path_7" data-name="Path 7" d="M60.38,348.64h16.49a9.124,9.124,0,0,1-16.49,0Z" transform="translate(1269.026 -228.419)" fill="#128807"/>
      <path id="Path_8" data-name="Path 8" d="M183.088,179.9a3.208,3.208,0,1,1-3.208,3.208,3.208,3.208,0,0,1,3.208-3.208Zm.561,3.179a.607.607,0,0,0-.011-.088l.561-.081,1.6-.529-1.652.343-.525.21a.546.546,0,0,0-.034-.082l.52-.223,1.41-.926c-.038-.066-.078-.13-.121-.192l0,0a.14.14,0,0,1-.174-.22q-.073-.087-.154-.167h0l-1.259,1.123-.349.445a.621.621,0,0,0-.071-.055l.339-.453.759-1.507-.925,1.411-.223.521a.537.537,0,0,0-.083-.034l.211-.525.343-1.652-.529,1.6-.08.561a.665.665,0,0,0-.088-.012l.067-.562-.1-1.684c-.076,0-.151,0-.226.009v0a.14.14,0,0,1-.278.04,2.762,2.762,0,0,0-.438.118.14.14,0,0,1-.259.107c-.069.033-.136.069-.2.106l.926,1.41.223.521a.545.545,0,0,1,.082-.034l-.21-.525-.343-1.652.529,1.6.081.561a.665.665,0,0,1,.088-.012l-.067-.562.1-1.684c.076,0,.152,0,.227.009v0a.14.14,0,0,0,.278.04,2.776,2.776,0,0,1,.439.118.14.14,0,0,0,.259.107,2.731,2.731,0,0,1,.393.227l0,0a.141.141,0,0,0,.223.171l0,0q.086.073.166.153h0l-1.123,1.26-.445.349a.515.515,0,0,1,.054.071l.454-.34,1.506-.759c.038.066.073.133.106.2a.14.14,0,0,0,.107.259,2.8,2.8,0,0,1,.117.439.14.14,0,0,0,.04.277h0c.005.075.009.15.009.226l-1.684-.1Zm-1.964-2.4.759,1.506.34.453a.529.529,0,0,0-.071.055l-.35-.445-1.259-1.122c.054-.054.11-.1.167-.154a.14.14,0,0,0,.22-.174l0,0C181.555,180.756,181.619,180.716,181.684,180.678Zm-.581.446,1.123,1.259.445.349a.649.649,0,0,0-.055.071l-.453-.34-1.506-.759c-.038.065-.073.133-.105.2a.141.141,0,0,1-.107.26c-.026.072-.048.144-.067.217l1.6.529.561.081a.607.607,0,0,0-.012.088l-.562-.067-1.684.1c0,.076,0,.152.009.227h0a.14.14,0,0,1,.04.278,2.725,2.725,0,0,0,.118.438.141.141,0,0,1,.107.26c.032.069.068.135.105.2l1.506-.759.453-.339a.647.647,0,0,0,.055.071l-.445.35-1.123,1.259h0c.054.053.11.1.167.154a.14.14,0,0,1,.22.173l0,0c.062.043.126.083.191.121l.926-1.411.223-.521a.506.506,0,0,0,.082.035l-.21.526-.343,1.652c.073.019.147.036.222.05a.14.14,0,0,1,.278.036c.075.006.15.01.227.01l.1-1.685-.067-.562a.557.557,0,0,0,.088-.011l.08.561.529,1.6-.343-1.652-.211-.526a.537.537,0,0,0,.083-.035l.223.521.925,1.411c.065-.038.13-.079.192-.121l0,0a.14.14,0,0,1,.22-.173c.058-.049.114-.1.167-.154l-1.123-1.259-.445-.35a.513.513,0,0,0,.054-.071l.454.339,1.507.759-1.411-.926-.521-.223a.494.494,0,0,0,.035-.083l.525.211,1.651.343c.019-.072.037-.146.051-.221a.14.14,0,0,1,.04-.278h0c.006-.075.009-.15.009-.227l-1.684.1-.563-.067a.6.6,0,0,1-.011.089l.561.08,1.6.529c-.02.074-.041.146-.067.217a.141.141,0,0,0-.107.26,2.712,2.712,0,0,1-.227.393l0,0a.14.14,0,0,0-.174.22q-.074.087-.154.168l-1.259-1.123-.349-.445a.67.67,0,0,1-.071.054l.339.453.759,1.507c-.065.038-.132.073-.2.105a.14.14,0,0,0-.258.11v0a2.733,2.733,0,0,1-.439.118.14.14,0,0,0-.278.036c-.075.005-.151.01-.228.01l-.1-1.685.067-.562a.557.557,0,0,1-.088-.011l-.081.561-.529,1.6c-.074-.019-.147-.042-.217-.067a.141.141,0,0,0-.26-.107q-.1-.049-.2-.105l.759-1.507.34-.453a.562.562,0,0,1-.071-.054l-.35.445-1.259,1.123h0c-.054-.054-.1-.11-.154-.167a.14.14,0,0,0-.173-.22l0,0c-.043-.062-.083-.126-.121-.192l1.41-.926.521-.223a.685.685,0,0,1-.034-.083l-.525.211-1.652.343,1.6-.529.561-.08a.6.6,0,0,1-.012-.089l-.562.067-1.684-.1c0-.077,0-.152.009-.226h0a.14.14,0,0,0,.04-.277q.021-.113.05-.222l1.652.343.525.21a.652.652,0,0,1,.034-.082l-.521-.223-1.41-.926c.038-.066.078-.13.121-.192l0,0a.14.14,0,0,0,.173-.22C181,181.233,181.05,181.177,181.1,181.124Z" transform="translate(1154.562 -66.791)" fill="#008" fill-rule="evenodd"/>
    </g>
  </g>
</svg>
