<svg xmlns="http://www.w3.org/2000/svg" xmlns:xlink="http://www.w3.org/1999/xlink" width="18" height="18" viewBox="0 0 18 18">
  <defs>
    <clipPath id="clip-path">
      <circle id="Ellipse_1" data-name="Ellipse 1" cx="9" cy="9" r="9" transform="translate(955 1138)" fill="#fff" stroke="#707070" stroke-width="1"/>
    </clipPath>
  </defs>
  <g id="Mask_Group_2" data-name="Mask Group 2" transform="translate(-955 -1138)" clip-path="url(#clip-path)">
    <g id="Flag_of_Kenya_1_" data-name="Flag_of_Kenya (1)" transform="translate(959.5 1144)">
      <path id="Path_7" data-name="Path 7" d="M-9-6H18V12H-9Z" transform="translate(0 0)" fill="#fff"/>
      <path id="Path_8" data-name="Path 8" d="M-9-6H18V-.6H-9Z" transform="translate(0 0)"/>
      <path id="Path_9" data-name="Path 9" d="M-9,2.4H18V7.8H-9Z" transform="translate(0 4.2)" fill="#060"/>
      <g id="B" transform="translate(1.09 -3.469)">
        <path id="Path_10" data-name="Path 10" d="M.225,13.51H.45V3a1.212,1.212,0,0,0,.225-.9A6.531,6.531,0,0,0,.338,0,6.531,6.531,0,0,0,0,2.1,1.212,1.212,0,0,0,.225,3Z" transform="matrix(0.866, 0.5, -0.5, 0.866, 6.755, 0)" stroke="#000" stroke-width="0.075"/>
        <path id="Path_11" data-name="Path 11" d="M.225,13.51H.45V3a1.212,1.212,0,0,0,.225-.9A6.531,6.531,0,0,0,.338,0,6.531,6.531,0,0,0,0,2.1,1.212,1.212,0,0,0,.225,3Z" transform="matrix(0.866, 0.5, -0.5, 0.866, 6.755, 0)" fill="#fff"/>
      </g>
      <g id="Group_1" data-name="Group 1" transform="translate(7.91 8.569) rotate(180)">
        <path id="Path_12" data-name="Path 12" d="M.225,0H.45V10.51a1.212,1.212,0,0,1,.225.9,6.531,6.531,0,0,1-.338,2.1A6.531,6.531,0,0,1,0,11.41a1.212,1.212,0,0,1,.225-.9Z" transform="matrix(0.866, -0.5, 0.5, 0.866, 0, 0.337)" stroke="#000" stroke-width="0.075"/>
        <path id="Path_13" data-name="Path 13" d="M.225,0H.45V10.51a1.212,1.212,0,0,1,.225.9,6.531,6.531,0,0,1-.338,2.1A6.531,6.531,0,0,1,0,11.41a1.212,1.212,0,0,1,.225-.9Z" transform="matrix(0.866, -0.5, 0.5, 0.866, 0, 0.337)" fill="#fff"/>
      </g>
      <path id="Path_14" data-name="Path 14" d="M-9-.9V4.5H2.362C2.7,5.4,3.825,7.2,4.5,7.2S6.3,5.4,6.637,4.5H18V-.9H6.637C6.3-1.8,5.175-3.6,4.5-3.6S2.7-1.8,2.362-.9Z" transform="translate(0 1.2)" fill="#b00"/>
      <path id="C" d="M1.612,3.6A7.733,7.733,0,0,0,2.175.9a7.733,7.733,0,0,0-.563-2.7A7.733,7.733,0,0,0,1.05.9a7.733,7.733,0,0,0,.562,2.7" transform="translate(5.025 2.1)"/>
      <path id="Path_15" data-name="Path 15" d="M.563,0a7.733,7.733,0,0,1,.563,2.7A7.733,7.733,0,0,1,.563,5.4,7.733,7.733,0,0,1,0,2.7,7.733,7.733,0,0,1,.563,0" transform="translate(2.925 5.7) rotate(180)"/>
      <g id="Group_2" data-name="Group 2" transform="translate(3.938 -2.383)">
        <ellipse id="Ellipse_2" data-name="Ellipse 2" cx="0.45" cy="0.675" rx="0.45" ry="0.675" transform="translate(0.112 4.708)" fill="#fff"/>
        <path id="D" d="M.075.439A5.708,5.708,0,0,1,.525,2.8a5.708,5.708,0,0,1-.45,2.363Z" transform="translate(0.6 5.602)" fill="#fff"/>
        <path id="Path_16" data-name="Path 16" d="M0,0A5.708,5.708,0,0,1,.45,2.362,5.708,5.708,0,0,1,0,4.725Z" transform="translate(0.45 4.725) rotate(180)" fill="#fff"/>
        <path id="Path_17" data-name="Path 17" d="M0,4.725A5.708,5.708,0,0,0,.45,2.362,5.708,5.708,0,0,0,0,0Z" transform="translate(0.45 10.766) rotate(180)" fill="#fff"/>
        <path id="Path_18" data-name="Path 18" d="M.075,1.136a5.708,5.708,0,0,0,.45-2.363,5.708,5.708,0,0,0-.45-2.363Z" transform="translate(0.6 3.589)" fill="#fff"/>
      </g>
    </g>
  </g>
</svg>
