<svg xmlns="http://www.w3.org/2000/svg" xmlns:xlink="http://www.w3.org/1999/xlink" width="18" height="18" viewBox="0 0 18 18">
  <defs>
    <clipPath id="clip-path">
      <circle id="Ellipse_5" data-name="Ellipse 5" cx="9" cy="9" r="9" transform="translate(675 1665)" fill="#fff" stroke="#707070" stroke-width="1"/>
    </clipPath>
  </defs>
  <g id="Mask_Group_4" data-name="Mask Group 4" transform="translate(-675 -1665)" clip-path="url(#clip-path)">
    <g id="Flag_of_Malawi" transform="translate(678.914 1669.304)">
      <path id="Path_108" data-name="Path 108" d="M-9-4.56H19.172V14.365H-9Z" transform="translate(0 0.205)"/>
      <circle id="Ellipse_6" data-name="Ellipse 6" cx="4.038" cy="4.038" r="4.038" transform="translate(1.048 -1.112)" fill="#ce1126"/>
      <g id="a" transform="translate(4.898 -3.46)">
        <g id="b">
          <g id="c">
            <g id="d">
              <path id="e" d="M.068,0C-.068,0-.12.2-.12.407A7.453,7.453,0,0,0,.068,1.878,7.453,7.453,0,0,0,.256.407C.256.2.2,0,.068,0Z" transform="translate(0.12)" fill="#ce1126"/>
              <path id="Path_109" data-name="Path 109" d="M.188,0C.052,0,0,.2,0,.407A7.453,7.453,0,0,0,.188,1.878,7.453,7.453,0,0,0,.376.407C.376.2.323,0,.188,0Z" transform="translate(0.557 0.008) rotate(5)" fill="#ce1126"/>
            </g>
            <g id="Group_5" data-name="Group 5" transform="translate(1.112 0.064) rotate(10)">
              <path id="e-2" data-name="e" d="M.188,0C.052,0,0,.2,0,.407A7.453,7.453,0,0,0,.188,1.878,7.453,7.453,0,0,0,.376.407C.376.2.323,0,.188,0Z" transform="translate(0 0)" fill="#ce1126"/>
              <path id="Path_110" data-name="Path 110" d="M.188,0C.052,0,0,.2,0,.407A7.453,7.453,0,0,0,.188,1.878,7.453,7.453,0,0,0,.376.407C.376.2.323,0,.188,0Z" transform="translate(0.557 0.008) rotate(5)" fill="#ce1126"/>
            </g>
          </g>
          <g id="Group_7" data-name="Group 7" transform="translate(2.195 0.321) rotate(20)">
            <g id="d-2" data-name="d" transform="translate(0 0)">
              <path id="e-3" data-name="e" d="M.188,0C.052,0,0,.2,0,.407A7.453,7.453,0,0,0,.188,1.878,7.453,7.453,0,0,0,.376.407C.376.2.323,0,.188,0Z" transform="translate(0 0)" fill="#ce1126"/>
              <path id="Path_111" data-name="Path 111" d="M.188,0C.052,0,0,.2,0,.407A7.453,7.453,0,0,0,.188,1.878,7.453,7.453,0,0,0,.376.407C.376.2.323,0,.188,0Z" transform="translate(0.557 0.008) rotate(5)" fill="#ce1126"/>
            </g>
            <g id="Group_6" data-name="Group 6" transform="translate(1.112 0.064) rotate(10)">
              <path id="e-4" data-name="e" d="M.188,0C.052,0,0,.2,0,.407A7.453,7.453,0,0,0,.188,1.878,7.453,7.453,0,0,0,.376.407C.376.2.323,0,.188,0Z" transform="translate(0 0)" fill="#ce1126"/>
              <path id="Path_112" data-name="Path 112" d="M.188,0C.052,0,0,.2,0,.407A7.453,7.453,0,0,0,.188,1.878,7.453,7.453,0,0,0,.376.407C.376.2.323,0,.188,0Z" transform="translate(0.557 0.008) rotate(5)" fill="#ce1126"/>
            </g>
          </g>
        </g>
        <g id="Group_11" data-name="Group 11" transform="matrix(0.766, 0.643, -0.643, 0.766, 4.149, 1.373)">
          <g id="c-2" data-name="c" transform="translate(0 0)">
            <g id="d-3" data-name="d" transform="translate(0)">
              <path id="e-5" data-name="e" d="M.188,0C.052,0,0,.2,0,.407A7.453,7.453,0,0,0,.188,1.878,7.453,7.453,0,0,0,.376.407C.376.2.323,0,.188,0Z" fill="#ce1126"/>
              <path id="Path_113" data-name="Path 113" d="M.188,0C.052,0,0,.2,0,.407A7.453,7.453,0,0,0,.188,1.878,7.453,7.453,0,0,0,.376.407C.376.2.323,0,.188,0Z" transform="translate(0.557 0.008) rotate(5)" fill="#ce1126"/>
            </g>
            <g id="Group_8" data-name="Group 8" transform="translate(1.112 0.064) rotate(10)">
              <path id="e-6" data-name="e" d="M.188,0C.052,0,0,.2,0,.407A7.453,7.453,0,0,0,.188,1.878,7.453,7.453,0,0,0,.376.407C.376.2.323,0,.188,0Z" transform="translate(0 0)" fill="#ce1126"/>
              <path id="Path_114" data-name="Path 114" d="M.188,0C.052,0,0,.2,0,.407A7.453,7.453,0,0,0,.188,1.878,7.453,7.453,0,0,0,.376.407C.376.2.323,0,.188,0Z" transform="translate(0.557 0.008) rotate(5)" fill="#ce1126"/>
            </g>
          </g>
          <g id="Group_10" data-name="Group 10" transform="translate(2.195 0.321) rotate(20)">
            <g id="d-4" data-name="d" transform="translate(0 0)">
              <path id="e-7" data-name="e" d="M.188,0C.052,0,0,.2,0,.407A7.453,7.453,0,0,0,.188,1.878,7.453,7.453,0,0,0,.376.407C.376.2.323,0,.188,0Z" fill="#ce1126"/>
              <path id="Path_115" data-name="Path 115" d="M.188,0C.052,0,0,.2,0,.407A7.453,7.453,0,0,0,.188,1.878,7.453,7.453,0,0,0,.376.407C.376.2.323,0,.188,0Z" transform="translate(0.557 0.008) rotate(5)" fill="#ce1126"/>
            </g>
            <g id="Group_9" data-name="Group 9" transform="translate(1.112 0.064) rotate(10)">
              <path id="e-8" data-name="e" d="M.188,0C.052,0,0,.2,0,.407A7.453,7.453,0,0,0,.188,1.878,7.453,7.453,0,0,0,.376.407C.376.2.323,0,.188,0Z" transform="translate(0 0)" fill="#ce1126"/>
              <path id="Path_116" data-name="Path 116" d="M.188,0C.052,0,0,.2,0,.407A7.453,7.453,0,0,0,.188,1.878,7.453,7.453,0,0,0,.376.407C.376.2.323,0,.188,0Z" transform="translate(0.557 0.008) rotate(5)" fill="#ce1126"/>
            </g>
          </g>
        </g>
      </g>
      <g id="Group_19" data-name="Group 19" transform="translate(-1.235 2.002) rotate(-80)">
        <g id="b-2" data-name="b" transform="translate(0 0)">
          <g id="c-3" data-name="c">
            <g id="d-5" data-name="d">
              <path id="e-9" data-name="e" d="M.188,0C.052,0,0,.2,0,.407A7.453,7.453,0,0,0,.188,1.878,7.453,7.453,0,0,0,.376.407C.376.2.323,0,.188,0Z" transform="translate(0 0)" fill="#ce1126"/>
              <path id="Path_117" data-name="Path 117" d="M.188,0C.052,0,0,.2,0,.407A7.453,7.453,0,0,0,.188,1.878,7.453,7.453,0,0,0,.376.407C.376.2.323,0,.188,0Z" transform="translate(0.557 0.008) rotate(5)" fill="#ce1126"/>
            </g>
            <g id="Group_12" data-name="Group 12" transform="translate(1.112 0.064) rotate(10)">
              <path id="e-10" data-name="e" d="M.188,0C.052,0,0,.2,0,.407A7.453,7.453,0,0,0,.188,1.878,7.453,7.453,0,0,0,.376.407C.376.2.323,0,.188,0Z" transform="translate(0 0)" fill="#ce1126"/>
              <path id="Path_118" data-name="Path 118" d="M.188,0C.052,0,0,.2,0,.407A7.453,7.453,0,0,0,.188,1.878,7.453,7.453,0,0,0,.376.407C.376.2.323,0,.188,0Z" transform="translate(0.557 0.008) rotate(5)" fill="#ce1126"/>
            </g>
          </g>
          <g id="Group_14" data-name="Group 14" transform="translate(2.195 0.321) rotate(20)">
            <g id="d-6" data-name="d" transform="translate(0 0)">
              <path id="e-11" data-name="e" d="M.188,0C.052,0,0,.2,0,.407A7.453,7.453,0,0,0,.188,1.878,7.453,7.453,0,0,0,.376.407C.376.2.323,0,.188,0Z" fill="#ce1126"/>
              <path id="Path_119" data-name="Path 119" d="M.188,0C.052,0,0,.2,0,.407A7.453,7.453,0,0,0,.188,1.878,7.453,7.453,0,0,0,.376.407C.376.2.323,0,.188,0Z" transform="translate(0.557 0.008) rotate(5)" fill="#ce1126"/>
            </g>
            <g id="Group_13" data-name="Group 13" transform="translate(1.112 0.064) rotate(10)">
              <path id="e-12" data-name="e" d="M.188,0C.052,0,0,.2,0,.407A7.453,7.453,0,0,0,.188,1.878,7.453,7.453,0,0,0,.376.407C.376.2.323,0,.188,0Z" transform="translate(0 0)" fill="#ce1126"/>
              <path id="Path_120" data-name="Path 120" d="M.188,0C.052,0,0,.2,0,.407A7.453,7.453,0,0,0,.188,1.878,7.453,7.453,0,0,0,.376.407C.376.2.323,0,.188,0Z" transform="translate(0.557 0.008) rotate(5)" fill="#ce1126"/>
            </g>
          </g>
        </g>
        <g id="Group_18" data-name="Group 18" transform="matrix(0.766, 0.643, -0.643, 0.766, 4.149, 1.373)">
          <g id="c-4" data-name="c" transform="translate(0 0)">
            <g id="d-7" data-name="d" transform="translate(0 0)">
              <path id="e-13" data-name="e" d="M.188,0C.052,0,0,.2,0,.407A7.453,7.453,0,0,0,.188,1.878,7.453,7.453,0,0,0,.376.407C.376.2.323,0,.188,0Z" fill="#ce1126"/>
              <path id="Path_121" data-name="Path 121" d="M.188,0C.052,0,0,.2,0,.407A7.453,7.453,0,0,0,.188,1.878,7.453,7.453,0,0,0,.376.407C.376.2.323,0,.188,0Z" transform="translate(0.557 0.008) rotate(5)" fill="#ce1126"/>
            </g>
            <g id="Group_15" data-name="Group 15" transform="translate(1.112 0.064) rotate(10)">
              <path id="e-14" data-name="e" d="M.188,0C.052,0,0,.2,0,.407A7.453,7.453,0,0,0,.188,1.878,7.453,7.453,0,0,0,.376.407C.376.2.323,0,.188,0Z" transform="translate(0 0)" fill="#ce1126"/>
              <path id="Path_122" data-name="Path 122" d="M.188,0C.052,0,0,.2,0,.407A7.453,7.453,0,0,0,.188,1.878,7.453,7.453,0,0,0,.376.407C.376.2.323,0,.188,0Z" transform="translate(0.557 0.008) rotate(5)" fill="#ce1126"/>
            </g>
          </g>
          <g id="Group_17" data-name="Group 17" transform="translate(2.195 0.321) rotate(20)">
            <g id="d-8" data-name="d" transform="translate(0 0)">
              <path id="e-15" data-name="e" d="M.188,0C.052,0,0,.2,0,.407A7.453,7.453,0,0,0,.188,1.878,7.453,7.453,0,0,0,.376.407C.376.2.323,0,.188,0Z" transform="translate(0 0)" fill="#ce1126"/>
              <path id="Path_123" data-name="Path 123" d="M.188,0C.052,0,0,.2,0,.407A7.453,7.453,0,0,0,.188,1.878,7.453,7.453,0,0,0,.376.407C.376.2.323,0,.188,0Z" transform="translate(0.557 0.008) rotate(5)" fill="#ce1126"/>
            </g>
            <g id="Group_16" data-name="Group 16" transform="translate(1.112 0.064) rotate(10)">
              <path id="e-16" data-name="e" d="M.188,0C.052,0,0,.2,0,.407A7.453,7.453,0,0,0,.188,1.878,7.453,7.453,0,0,0,.376.407C.376.2.323,0,.188,0Z" transform="translate(0 0)" fill="#ce1126"/>
              <path id="Path_124" data-name="Path 124" d="M.188,0C.052,0,0,.2,0,.407A7.453,7.453,0,0,0,.188,1.878,7.453,7.453,0,0,0,.376.407C.376.2.323,0,.188,0Z" transform="translate(0.557 0.008) rotate(5)" fill="#ce1126"/>
            </g>
          </g>
        </g>
      </g>
      <path id="Path_125" data-name="Path 125" d="M-9-.86H19.172V12.13H-9Z" transform="translate(0 2.44)"/>
      <path id="Path_126" data-name="Path 126" d="M-9-.56H19.172V11.961H-9Z" transform="translate(0 2.61)" fill="#ce1126"/>
      <path id="Path_127" data-name="Path 127" d="M-9,3.44H19.172V9.7H-9Z" transform="translate(0 4.87)" fill="#339e35"/>
    </g>
  </g>
</svg>
