<svg width="18" height="18" viewBox="0 0 18 18" fill="none" xmlns="http://www.w3.org/2000/svg">
<g clip-path="url(#clip0_4251_3511)">
<path d="M9 18C13.9706 18 18 13.9706 18 9C18 4.02944 13.9706 0 9 0C4.02944 0 0 4.02944 0 9C0 13.9706 4.02944 18 9 18Z" fill="#F0F0F0"/>
<path d="M-0.000305176 9.00017C-0.000305176 12.8699 2.44207 16.1687 5.86928 17.4404V0.559998C2.44207 1.8316 -0.000305176 5.13052 -0.000305176 9.00017Z" fill="#6DA544"/>
<path d="M17.9999 9.00017C17.9999 5.13052 15.5575 1.8316 12.1303 0.559998V17.4404C15.5575 16.1687 17.9999 12.8699 17.9999 9.00017Z" fill="#6DA544"/>
</g>
<defs>
<clipPath id="clip0_4251_3511">
<rect width="18" height="18" fill="white"/>
</clipPath>
</defs>
</svg>
