<svg xmlns="http://www.w3.org/2000/svg" width="131" height="30" viewBox="0 0 679.49 152.324" class="icon"><g data-name="Group 3"><g data-name="Group 1"><path data-name="Path 1" d="M196.4 116.884a38.873 38.873 0 0 1-11.02-2.31 31.953 31.953 0 0 1-9.41-5.3 23.018 23.018 0 0 1-6.3-8.06l15.08-6.44a13 13 0 0 0 2.86 3.11 17.6 17.6 0 0 0 4.72 2.75 16.15 16.15 0 0 0 6.04 1.1 18.183 18.183 0 0 0 5.31-.77 9.337 9.337 0 0 0 4.1-2.38 5.713 5.713 0 0 0 1.57-4.17 5.078 5.078 0 0 0-1.87-4.21 12.779 12.779 0 0 0-4.68-2.27q-2.82-.765-5.46-1.43a52.363 52.363 0 0 1-12.92-4.32 26.879 26.879 0 0 1-9.59-7.58 17.693 17.693 0 0 1-3.62-11.24 20.7 20.7 0 0 1 3.84-12.52 25.384 25.384 0 0 1 10.03-8.13 31.541 31.541 0 0 1 13.36-2.86 35.308 35.308 0 0 1 15.99 3.63 28.555 28.555 0 0 1 11.53 10.21l-14.13 8.35a12.18 12.18 0 0 0-2.86-3.26 16.947 16.947 0 0 0-4.17-2.49 14.725 14.725 0 0 0-4.91-1.14 19.428 19.428 0 0 0-6 .59 9.044 9.044 0 0 0-4.35 2.49 6.563 6.563 0 0 0-1.65 4.69 4.422 4.422 0 0 0 2.2 4.14 17.671 17.671 0 0 0 5.3 2.09c2.08.49 4.06 1.02 5.97 1.61a73.967 73.967 0 0 1 12.12 5.2 28.378 28.378 0 0 1 9.11 7.54 16.408 16.408 0 0 1 3.3 10.69 19.3 19.3 0 0 1-4.25 12.41 26.9 26.9 0 0 1-10.95 8.09 30.734 30.734 0 0 1-14.31 2.19"></path><path data-name="Path 2" d="M264.63 116.984a33.133 33.133 0 0 1-5.19-.41 30.667 30.667 0 0 1-19.5-11.66c-.61-.81-1.13-1.55-1.59-2.28a27.879 27.879 0 0 1-4.28-15.04v-45.98h17.96v45.98a10.2 10.2 0 0 0 1.58 5.66c.17.27.4.59.69.98a12.658 12.658 0 0 0 8.01 4.79 15.078 15.078 0 0 0 2.31.18 14.714 14.714 0 0 0 2.36-.19 11.86 11.86 0 0 0 4.03-1.4 12.561 12.561 0 0 0 3.94-3.39c.29-.38.51-.7.69-.97a10.15 10.15 0 0 0 1.58-5.66v-45.98h17.96v45.98a27.879 27.879 0 0 1-4.28 15.04c-.46.73-.98 1.48-1.59 2.28a30.7 30.7 0 0 1-19.48 11.66 35.138 35.138 0 0 1-5.19.42"></path><path data-name="Path 3" d="M335.37 39.614a33.133 33.133 0 0 1 5.19.41 30.667 30.667 0 0 1 19.5 11.66c.61.81 1.13 1.55 1.59 2.28a27.879 27.879 0 0 1 4.28 15.04v45.98h-17.96v-45.98a10.2 10.2 0 0 0-1.58-5.66c-.17-.27-.4-.59-.69-.98a12.658 12.658 0 0 0-8.01-4.79 15.077 15.077 0 0 0-2.31-.18 14.714 14.714 0 0 0-2.36.19 11.86 11.86 0 0 0-4.03 1.4 12.561 12.561 0 0 0-3.94 3.39c-.29.38-.51.7-.69.97a10.15 10.15 0 0 0-1.58 5.66v45.98h-17.96v-45.98a27.879 27.879 0 0 1 4.28-15.04c.46-.73.98-1.48 1.59-2.28a30.7 30.7 0 0 1 19.48-11.66 35.139 35.139 0 0 1 5.19-.42"></path><path data-name="Path 4" d="M540.95 39.614a33.133 33.133 0 0 1 5.19.41 30.667 30.667 0 0 1 19.5 11.66c.61.81 1.13 1.55 1.59 2.28a27.879 27.879 0 0 1 4.28 15.04v45.98h-17.96v-45.98a10.2 10.2 0 0 0-1.58-5.66c-.17-.27-.4-.59-.69-.98a12.658 12.658 0 0 0-8.01-4.79 15.077 15.077 0 0 0-2.31-.18 14.714 14.714 0 0 0-2.36.19 11.86 11.86 0 0 0-4.03 1.4 12.56 12.56 0 0 0-3.94 3.39c-.29.38-.51.7-.69.97a10.15 10.15 0 0 0-1.58 5.66v45.98H510.4v-45.98a27.879 27.879 0 0 1 4.28-15.04c.46-.73.98-1.48 1.59-2.28a30.7 30.7 0 0 1 19.48-11.66 35.138 35.138 0 0 1 5.19-.42"></path><path data-name="Path 5" d="M490.5 33.574a10.58 10.58 0 0 1-7.63-2.98 10.574 10.574 0 0 1 0-14.96 10.422 10.422 0 0 1 7.54-3.02 10.281 10.281 0 0 1 7.5 3.02 10.062 10.062 0 0 1 3.06 7.46 10.235 10.235 0 0 1-10.47 10.48m-9.06 8.12h17.86v73.21h-17.86Z"></path><path data-name="Path 6" d="M665.84 41.614v1.93h-3.38v9.13h-1.93v-9.13h-3.38v-1.93Zm.78 11.06 2.15-11.06h1.59l2.69 7.09 2.69-7.09h1.6l2.15 11.06h-1.96l-1.33-6.84-2.49 6.59h-1.32l-2.49-6.59-1.32 6.84h-1.97Z"></path><path data-name="Path 7" d="M654 77.284c-.05-1.47-.14-2.93-.31-4.39a39.054 39.054 0 0 0-3.98-13.17 35.787 35.787 0 0 0-21.61-18.28 34.337 34.337 0 0 0-7.53-1.31q-1.32-.075-2.64-.06c-19.65.25-35.92 16.65-36.66 36.96-.79 21.9 16.14 39.91 37.13 39.91 6.94 0 11.97-1.98 17.53-5.41a.586.586 0 0 1 .89.52 34.139 34.139 0 0 1-.48 8.02c-1.77 7.38-7.63 11.98-14.7 13.16a28.23 28.23 0 0 1-4.59.37 18.4 18.4 0 0 1-7.78-1.72 21.126 21.126 0 0 1-6.62-4.76 19.7 19.7 0 0 1-4.28-7.06l-15.78 7.39a37.906 37.906 0 0 0 8.03 12.41 39.818 39.818 0 0 0 12.14 8.6 33.9 33.9 0 0 0 14.29 3.15 35.02 35.02 0 0 0 13.11-2.52 39.352 39.352 0 0 0 12.31-7.17 33.888 33.888 0 0 0 8.49-11.13 32.7 32.7 0 0 0 3.12-14.38v-16.66c0-4.25.1-8.52-.01-12.77-.09-3.22.02-6.46-.08-9.69m-35.47 21.94c-11.14 0-20.16-9.28-20.16-20.73s9.03-20.73 20.16-20.73a18.427 18.427 0 0 1 17.15 12.1c3.27 8.43 1.44 19.25-5.53 25.17a17.89 17.89 0 0 1-11.62 4.18"></path><path data-name="Path 8" d="M406.46 13.704v101.28h18.25v-28.77s27.79-1.31 29.43 28.77h17.76s.99-24.01-20.39-38.64c7.23-3.62 18.42-19.24 16.77-34.69h-17.92s-.82 26.31-25.49 26.31v-54.26h-18.41Z"></path></g><g data-name="Group 2"><path data-name="Path 9" d="M29.63 121.314Z"></path><path data-name="Path 10" d="M97.38 147.024Z"></path><path data-name="Path 11" d="M95.37 147.084Z"></path><path data-name="Path 12" d="M107.63 151.944Z"></path><path data-name="Path 13" d="M98.08 146.024v.01Z"></path><path data-name="Path 14" d="M31.79 121.064Z"></path><path data-name="Path 15" d="M28.92 120.614Z"></path><path data-name="Path 16" d="M1.76 43.494Z"></path><path data-name="Path 17" d="M.45 79.284Z"></path><path data-name="Path 18" d="M101.7 46.024c.81.7 1.65 1.37 2.52 2 1.73 1.26 5.31 3.73 7.52 3.81-1.83-2.25-9.52-8.09-10.76-10.14a8.349 8.349 0 0 0 2.11-4.19 2.242 2.242 0 0 0-1.24-1.97s-6.41.28-12.73 8.94c3.22 2.6 5.87 1.66 9.77 1.04a2.992 2.992 0 0 1 2.8.51Z"></path><path data-name="Path 19" d="m114.11 36.304-.25-.12a1.66 1.66 0 0 1-.63-.48 33.643 33.643 0 0 0-9.05-11.71c-.02-.14-.04-.27-.05-.36-.25-1.54-1.61-4.19-4.03-7.24-2.33-4.26-6.6-9.01-14.45-11.64a.816.816 0 0 0-.88 1.3c.65.76 1.41 1.7 2.2 2.74a.587.587 0 0 1-.85.8c-4.84-4.25-13.6-10.09-24.77-9.56a.816.816 0 0 0-.41 1.49 53.122 53.122 0 0 1 13.08 12.6l-.26.22.02.02v.02h-.01l-.02-.02A76.814 76.814 0 0 0 62 7.694c-4.99-2.24-10.73-4.04-16.43-4.05a22.237 22.237 0 0 0-8 1.41 1.858 1.858 0 0 0-1.19 1.72 1.853 1.853 0 0 0 .27.95 17.659 17.659 0 0 0 3.9 4.36 50.731 50.731 0 0 0-39.01 29.42 1.8 1.8 0 0 0-.17.78v.01a1.853 1.853 0 0 0 .43 1.17 1.819 1.819 0 0 0 1.12.64l2.29.38-.27-.13c.82.07 1.79.12 2.88.12a35.88 35.88 0 0 0 4.9-.35 23.425 23.425 0 0 0-5.74 8.75c-1.55 4.02-1.91 9.17-2.56 13.75a34.66 34.66 0 0 1-1.29 6.15 7.379 7.379 0 0 1-2.36 3.74 1.845 1.845 0 0 0-.77 1.48v.02a1.857 1.857 0 0 0 1.8 1.85h.42c2.69 0 6.64-.84 10.95-4.32a35.258 35.258 0 0 0 6.07-7.21c1.43-2.08 2.85-4.29 4.22-6.38a78.481 78.481 0 0 0-3.82 23.9 68.443 68.443 0 0 0 9.3 34.73 1.836 1.836 0 0 0 .71.7 1.857 1.857 0 0 0 .81.22h.08a1.9 1.9 0 0 0 1.26-.48 1.816 1.816 0 0 0 .6-1.35v-.12c-.09-1.52-.14-2.8-.14-3.91a19.9 19.9 0 0 1 .57-5.27 26.37 26.37 0 0 1 1.27-3.52 34.727 34.727 0 0 0 2.21 5.68 21.507 21.507 0 0 0 7.17 8.48c3.73 2.45 8.73 4.62 13.87 6.75s10.4 4.21 14.57 6.38a86.254 86.254 0 0 1 9.35 6.12 11.824 11.824 0 0 0 1.53.97 3.031 3.031 0 0 0 1.29.37 1.483 1.483 0 0 0 .63-.13 1.441 1.441 0 0 0 .72-.72 1.978 1.978 0 0 0 .15-.73 3.631 3.631 0 0 0-.19-1.07 9.925 9.925 0 0 0-.52-1.31c-.08-.18-.16-.33-.22-.44s-.1-.19-.1-.19a17.994 17.994 0 0 0-5.64-6.81c-3.52-2.77-7.71-4.99-11.56-8.49s-7.4-8.23-9.65-16.13a61.124 61.124 0 0 1-2.35-16.64 54.838 54.838 0 0 1 .41-6.68 54.341 54.341 0 0 0 10.99 31.9 31.49 31.49 0 0 0 8.53 7.5 50.461 50.461 0 0 1 9.93 8.08 34.8 34.8 0 0 1 6.67 9.4c1.15 2.5 1.66 4.66 2.76 7.11a1.832 1.832 0 0 0 2.72.75 1.815 1.815 0 0 0 .69-.99 26.4 26.4 0 0 0 .71-4.31c.16-1.72.25-3.69.25-5.75a62.209 62.209 0 0 0-.69-9.52 29.215 29.215 0 0 0-.91-4.03 28.1 28.1 0 0 1 2.25 3.71c2.3 4.46 5.16 12.09 7.31 24.72a1.766 1.766 0 0 0 .63 1.1 1.8 1.8 0 0 0 1.09.39h.02a1.967 1.967 0 0 0 1.62-.88 47.585 47.585 0 0 0 4.25-6.99 27.431 27.431 0 0 0 2.75-11.85v-.02a27.5 27.5 0 0 0-.2-3.33 18.02 18.02 0 0 0-4.68-10.08 30.535 30.535 0 0 0-10.66-7.22c-4.31-1.87-10.28-3.92-15.7-6.42a48.758 48.758 0 0 1-7.41-4.11c-.37-.26-.73-.53-1.07-.79a51.3 51.3 0 0 0 14.64 5.65c7.97 1.92 13.71 4.2 17.83 6.59 6.18 3.61 8.72 7.41 9.89 10.86a19.58 19.58 0 0 1 .91 4.9c.11 1.52.1 2.89.23 4.11a1.8 1.8 0 0 0 .7 1.25 1.993 1.993 0 0 0 1.18.38 2.252 2.252 0 0 0 1.26-.39 2.008 2.008 0 0 0 .83-1.24 59.009 59.009 0 0 0 1.5-12.3 28.7 28.7 0 0 0-4.09-15.62c-3.16-4.96-8.57-9.17-17.23-11.42h-.01l-.03-.02h-.03a1.764 1.764 0 0 0-.27-.07c-.14-.03-.27-.07-.41-.1a41.77 41.77 0 0 1-8.98-3.49 18.852 18.852 0 0 1-3-1.95c-.06-.05-.1-.09-.15-.14 2.88.24 5.92.48 6.43.48.86 0 1.73-.04 2.57-.11s.71-.06 1.71-.06c3.86 0 5.82.85 6.36 1.64a6.757 6.757 0 0 0 .53.69c2.25 3.05 5.7 4.9 10.26 5.5a16.82 16.82 0 0 0 2.26.15c5.68 0 10.28-2.47 12.62-6.78a13.315 13.315 0 0 0 .02-12.29c2.2-3.95 1.77-9.6 1.43-12.05 1.97-2.93 2.55-8.46 2.65-9.6v-.13c.05-1.88.17-6.87-25.14-18.74Zm16.71 50.33a9.336 9.336 0 0 1-8.76 4.77c-2.1-.28-6.52-1.13-7.55-6.24 2.92.66 12.48-.52 16.44-4.97.39.67 1.74 3-.12 6.44Zm-64.08-60.38c-4.56-5.8-12.04-6.1-15.91-1.83-3.64 4.02-2.56 9.52 3.41 13.9a38.418 38.418 0 0 0 6.16 3.53c.56.29.33.96-.49.96-2.39 0-7.52-1.55-11.46-4.8-3.74-3.09-7.84-10.13-2.24-16.86a13.024 13.024 0 0 1 8.7-4.41c9.08-.42 13.64 6.89 15.81 13.12.24.68-.91 1.19-1.26.56a30.959 30.959 0 0 0-2.73-4.17Zm10.08 37.61a105.309 105.309 0 0 1-2.15-14.67 37.647 37.647 0 0 0-5.65 8.76c.26-4.5.56-12.11 7.96-19.68a17.437 17.437 0 0 0-6.37-.39s4.79-7.14 12.83-9.68c-1.6-1.89-5.39-3.16-7.85-3.14 4.7-1.7 15.14-2.03 20.11.36a25.527 25.527 0 0 1 9.95 7.76c2.29 2.96 3.16 6.56 5.56 7.79 5.13 2.63 16.4 6.24 22.72 13.49 0 .12.02.23.01.36-3.58-.45-13.06 1.84-13.64 2.42 2.76.7 9.77 4.57 10.96 9.16s.11 10.35-9.58 13.17-14.33-1.44-14.64-8.01c-.14-3.57 2.74-7.24 2.74-7.24s-9.2 3.76-4.41 17.25l-2.28.31c-15.55 2.75-24.62-10.08-26.28-18.04Z"></path></g></g></svg>