<svg xmlns="http://www.w3.org/2000/svg" xmlns:xlink="http://www.w3.org/1999/xlink" width="18" height="18" viewBox="0 0 18 18">
  <defs>
    <clipPath id="clip-path">
      <circle id="Ellipse_2" data-name="Ellipse 2" cx="9" cy="9" r="9" transform="translate(608 1717)" fill="#fff"/>
    </clipPath>
  </defs>
  <g id="Mask_Group_3" data-name="Mask Group 3" transform="translate(-608 -1717)" clip-path="url(#clip-path)">
    <g id="Flag_of_Uganda" transform="translate(603.5 1717)">
      <path id="Path_92" data-name="Path 92" d="M0,0H27V18H0Z"/>
      <path id="Path_93" data-name="Path 93" d="M0,2H27V6.5H0Zm0,9H27v6H0Z" transform="translate(0 1)" fill="#fcdc04"/>
      <path id="Path_94" data-name="Path 94" d="M0,4H27V7H0Zm0,9H27v3H0Z" transform="translate(0 2)" fill="#d90000"/>
      <circle id="Ellipse_3" data-name="Ellipse 3" cx="2.805" cy="2.805" r="2.805" transform="translate(10.695 6.195)" fill="#fff"/>
      <g id="Group_4" data-name="Group 4" transform="translate(12.371 6.392)">
        <path id="Path_95" data-name="Path 95" d="M8.731,4.721l-.182-.335a.512.512,0,0,1,.377-.124c0,.013-.019.367-.019.367Z" transform="translate(-8.096 -4.261)" fill="#d90000" stroke="#000" stroke-width="0.02"/>
        <path id="Path_96" data-name="Path 96" d="M8.787,4.632l.026-.37a.77.77,0,0,1,.581.223s-.2.287-.2.287Z" transform="translate(-7.977 -4.261)" fill="#fcdc04" stroke="#000" stroke-width="0.02"/>
        <path id="Path_97" data-name="Path 97" d="M9.062,4.7l.185-.287a.6.6,0,0,1,.195.364s-.294.073-.294.07S9.065,4.7,9.062,4.7Z" transform="translate(-7.84 -4.187)" fill="#d90000" stroke="#000" stroke-width="0.02"/>
        <path id="Path_98" data-name="Path 98" d="M8.975,9.393A1.183,1.183,0,0,1,10,9.08c-.1-.166-.431-.147-.431-.147s-.1-.776-.022-.814a1.474,1.474,0,0,1,.418,0,.137.137,0,0,0,.061-.2c-.061-.077-.239-.37-.166-.428s.472.032.472.032L9.2,6.087a1.113,1.113,0,0,1,.115-.8.526.526,0,0,0,.239-.476.415.415,0,0,0-.68-.2.264.264,0,0,0-.051.326s-.4.109-.418.179.453-.013.453-.013l-.045.322s-.913.83-.214,1.548a.147.147,0,0,0,.022-.032,1.224,1.224,0,0,0,.5.37c.243.249.22.211.22.211a1.608,1.608,0,0,1,0,.469,3.656,3.656,0,0,0-.772-.006c-.083.026-.4.01-.322.53l.115-.265s-.01.188.067.255a.589.589,0,0,1,.073-.332s.016.217.064.249.048-.351.313-.319a2.98,2.98,0,0,0,.456.022,6.646,6.646,0,0,1,.061.82c-.192-.045-.648.019-.677.134a1.428,1.428,0,0,1,.393.016S8.908,9.281,8.975,9.393Z" transform="translate(-8.247 -4.142)" stroke="#000" stroke-width="0.02"/>
        <path id="Path_99" data-name="Path 99" d="M8.954,5.033s-.664.732-.378,1.292c.015-.078.009-.127.018-.124-.016-.01.082.067.075.052a.481.481,0,0,0-.03-.127l.09.022-.052-.1.127.015s-.045-.12-.03-.12.1.007.1.007C8.69,5.615,8.868,5.334,8.954,5.033Z" transform="translate(-8.118 -3.875)" fill="#9ca69c" stroke="#9ca69c" stroke-width="0.02"/>
        <path id="Path_100" data-name="Path 100" d="M9.024,4.615s.035.252-.1.326c-.022.016-.109.045-.1.1.016.07.054.057.109.045C9.078,5.055,9.244,4.749,9.024,4.615Z" transform="translate(-7.958 -4.084)" fill="#9ca69c" stroke="#9ca69c" stroke-width="0.02"/>
        <circle id="Ellipse_4" data-name="Ellipse 4" cx="0.054" cy="0.054" r="0.054" transform="translate(0.715 0.694)" fill="#fff"/>
        <path id="Path_101" data-name="Path 101" d="M8.69,4.9c-.035.029-.22.22-.038.29.188-.051.137-.086.179-.128C8.832,4.976,8.737,4.954,8.69,4.9Z" transform="translate(-8.084 -3.942)" fill="#d90000" stroke="#000" stroke-width="0.02"/>
        <path id="Path_102" data-name="Path 102" d="M8.927,6.106a.494.494,0,0,0,.006.313c.16-.067.233-.048.287-.013A1.315,1.315,0,0,1,8.927,6.106Z" transform="translate(-7.919 -3.339)" fill="#9ca69c" stroke="#9ca69c" stroke-width="0.02"/>
        <path id="Path_103" data-name="Path 103" d="M9.1,6.589l.01.357a.471.471,0,0,0,.182,0C9.351,6.924,9.291,6.7,9.1,6.589Z" transform="translate(-7.819 -3.097)" fill="#fff" stroke="#fff" stroke-width="0.02"/>
        <path id="Path_104" data-name="Path 104" d="M10.142,7.149a1.271,1.271,0,0,0-.817-.7.625.625,0,0,1-.463-.8c.026-.054.045-.137.214-.057s.948.472,1.06.491S10.151,7.162,10.142,7.149Z" transform="translate(-7.956 -3.612)" fill="#9ca69c" stroke="#000" stroke-width="0.02"/>
        <path id="Path_105" data-name="Path 105" d="M9.332,6.285c-.01.006.785.469.546.868a.384.384,0,0,0,.153-.412.577.577,0,0,1-.265.718c.048.041.08.032.08.032l-.077.077s-.035.057.268-.089c-.083.067-.089.115-.089.115s.022.064.22-.109a1.126,1.126,0,0,0-.195.259c.431-.038,1.369-1.439-.3-1.854l.077.08Z" transform="translate(-7.705 -3.447)" fill="#d90000" stroke="#000" stroke-width="0.02"/>
        <path id="Path_106" data-name="Path 106" d="M9.539,6.215c.109.077.147.1.16.14A.724.724,0,0,0,9.51,6.34a2.815,2.815,0,0,0-.252-.22,1.188,1.188,0,0,1-.195-.105c-.083-.041-.16-.329.147-.246.316.15.361.163.361.163l.377.118.217.243A4.5,4.5,0,0,0,9.73,6.1a.728.728,0,0,1,.166.2A2.652,2.652,0,0,0,9.539,6.215Z" transform="translate(-7.876 -3.515)" fill="#fff" stroke="#000" stroke-width="0.02"/>
        <path id="Path_107" data-name="Path 107" d="M8.353,4.945a2.859,2.859,0,0,1,.415-.077" transform="translate(-8.194 -3.958)" stroke="#fff" stroke-width="0.02"/>
      </g>
    </g>
  </g>
</svg>
