<svg width="18" height="18" viewBox="0 0 18 18" fill="none" xmlns="http://www.w3.org/2000/svg">
<g clip-path="url(#clip0_3524_5076)">
<path d="M9 18C13.9706 18 18 13.9706 18 9C18 4.02944 13.9706 -1.90735e-06 9 -1.90735e-06C4.02944 -1.90735e-06 0 4.02944 0 9C0 13.9706 4.02944 18 9 18Z" fill="#F0F0F0"/>
<path d="M2.6357 15.3639C-0.879013 11.8492 -0.879013 6.1507 2.6357 2.63596C2.63545 2.63634 7.82578 8.99994 7.82578 8.99994L2.6357 15.3639Z" fill="black"/>
<path d="M7.82622 9.00014L1.19378 4.51817C0.988149 4.87561 0.806813 5.24868 0.651001 5.63484L4.00874 9.00017L0.651106 12.3657C0.806778 12.7516 0.987939 13.1244 1.19343 13.4816L7.82622 9.00014Z" fill="#FFDA44"/>
<path d="M17.9239 7.82604H7.82596L2.63606 2.6361C2.07679 3.19537 1.5909 3.82786 1.19377 4.51802L5.66702 8.99995L1.19342 13.4813C1.59055 14.1716 2.07665 14.8043 2.63606 15.3638L7.82596 10.1738H17.9239C17.974 9.78959 18.0001 9.39781 18.0001 8.99995C18.0001 8.60208 17.974 8.2103 17.9239 7.82604Z" fill="#6DA544"/>
<path d="M3.52026 16.1386C5.03792 17.3051 6.93766 17.9991 8.99979 17.9991C13.158 17.9991 16.657 15.1789 17.6897 11.347H8.31189L3.52026 16.1386Z" fill="#0052B4"/>
<path d="M17.6897 6.65155C16.657 2.81966 13.158 -0.000612259 8.99979 -0.000612259C6.93766 -0.000612259 5.03792 0.693407 3.52026 1.85996L8.31185 6.65155H17.6897Z" fill="#D80027"/>
</g>
<defs>
<clipPath id="clip0_3524_5076">
<rect width="18" height="18" fill="white"/>
</clipPath>
</defs>
</svg>
