<svg xmlns="http://www.w3.org/2000/svg" width="18" height="18" viewBox="0 0 18 18">
  <g id="zambia-flag-round-circle-icon" transform="translate(-39.594 -39.594)">
    <path id="Path_232" data-name="Path 232" d="M248.763,208.274V198.2h-5.421v11.486c.176.01.353.016.531.016A9.035,9.035,0,0,0,248.763,208.274Z" transform="translate(-195.305 -152.109)" fill="#de2010"/>
    <path id="Path_233" data-name="Path 233" d="M330.008,198.151h-5.892V209.2a9.088,9.088,0,0,0,5.892-11.045Z" transform="translate(-272.742 -152.061)" fill="#ef7d00"/>
    <path id="Path_234" data-name="Path 234" d="M327.5,207.317V198.31h-3.388v11.038A9.075,9.075,0,0,0,327.5,207.317Z" transform="translate(-272.713 -152.213)"/>
    <path id="Path_235" data-name="Path 235" d="M57.268,46.2h-9.2V57.578a9,9,0,1,1,9.2-11.382Z" transform="translate(0 0.016)" fill="#147f55"/>
    <path id="Path_236" data-name="Path 236" d="M363.079,96.751a3.319,3.319,0,0,1-.593-.072,2.906,2.906,0,0,0,.6.079q.077.089.153.18c-.087.006-.2.015-.341.028q.175,0,.349-.018l.083.1a1.177,1.177,0,0,1-.925.024c.467.118.519.122.529.16a.956.956,0,0,1-.786-.066,5.652,5.652,0,0,1,.57.174.415.415,0,0,1-.365.042c-.169-.071-1.731-.951-1.731-.951L362.345,96A9.112,9.112,0,0,1,363.079,96.751Z" transform="translate(-307.717 -54.041)" fill="#ef7d00"/>
    <path id="Path_237" data-name="Path 237" d="M362.993,96.783a1.258,1.258,0,0,1-.484.11c.071.021.087.034.093.057a.015.015,0,0,1,0,.012.446.446,0,0,1-.264.06c.031.011.049.023.05.038a.015.015,0,0,1-.008.015h0a.364.364,0,0,1-.118.053.412.412,0,0,1-.244,0L362,97.12c-.17-.071-1.728-.95-1.732-.952a.015.015,0,0,1-.007-.009.015.015,0,0,1,.011-.019l1.714-.431.027.025-1.7.427c.226.127,1.541.867,1.7.932l.013,0a.382.382,0,0,0,.226,0,.406.406,0,0,0,.1-.039.823.823,0,0,0-.155-.042l-.008,0a1.176,1.176,0,0,1-.4-.114.015.015,0,0,1-.007-.02.015.015,0,0,1,.019-.007,2.93,2.93,0,0,0,.388.112l.026,0a.68.68,0,0,0,.348-.037c-.011-.015-.051-.027-.2-.064a1.161,1.161,0,0,1-.315-.079.015.015,0,0,1,.009-.029l.22.055.091.023a1.2,1.2,0,0,0,.6-.1Zm-.273-.328.034.039a2.913,2.913,0,0,1-.617-.08.015.015,0,1,1,.007-.03h0A3.308,3.308,0,0,0,362.72,96.456Zm.161.188.032.039c-.113.01-.233.016-.361.019a.015.015,0,0,1,0-.03C362.684,96.659,362.793,96.65,362.881,96.644Z" transform="translate(-307.371 -53.761)"/>
    <path id="Path_238" data-name="Path 238" d="M346.075,133.045a.211.211,0,0,0-.24.191s-.019.014-.006.106a.528.528,0,0,1,.058-.083.362.362,0,0,0,.3-.089c-.155.148-.062.2-.062.2a.1.1,0,0,0,.081.14.085.085,0,0,1-.015-.089.177.177,0,0,0,.154-.2c.006.167.105.209.105.209a.1.1,0,0,0,.107.1.134.134,0,0,1-.045-.12.163.163,0,0,0,.021-.25.416.416,0,0,0,.129-.142.9.9,0,0,1-.142-.069,1.121,1.121,0,0,1,0-.268l-.058-.293-.165.457A.22.22,0,0,1,346.075,133.045Z" transform="translate(-293.499 -88.941)" fill="#ef7d00"/>
    <path id="Path_239" data-name="Path 239" d="M345.736,132.712c-.219,0-.225.176-.225.176a.015.015,0,0,1-.006.011s-.007.01,0,.049a.389.389,0,0,1,.036-.049.016.016,0,0,1,.014,0h.006a.355.355,0,0,0,.284-.087.015.015,0,0,1,.019.023c-.14.134-.065.179-.065.179a.015.015,0,0,1,.006.017.1.1,0,0,0,.035.108.094.094,0,0,1,0-.068.015.015,0,0,1,.012-.008.162.162,0,0,0,.141-.185.015.015,0,1,1,.03,0v0c.007.154.1.191.1.191a.015.015,0,0,1,.009.014.087.087,0,0,0,.051.075.158.158,0,0,1-.019-.1.016.016,0,0,1,.006-.01.149.149,0,0,0,.018-.228.015.015,0,0,1,0-.021h0a.361.361,0,0,0,.114-.121.786.786,0,0,1-.128-.064l0-.005a1.057,1.057,0,0,1,0-.274l-.047-.238-.144.4v0a.257.257,0,0,1-.009.041A.227.227,0,0,1,345.736,132.712Zm-.255.171a.226.226,0,0,1,.255-.2.2.2,0,0,0,.2-.147.234.234,0,0,0,.007-.031.019.019,0,0,1,0-.005.084.084,0,0,1,0-.012l0-.014a.1.1,0,0,1,.011-.03.065.065,0,0,1,.007-.013l.141-.39a.015.015,0,0,1,.012-.011.015.015,0,0,1,.018.012l.058.293a.017.017,0,0,1,0,0,1.244,1.244,0,0,0,0,.256.918.918,0,0,0,.135.065h0a.015.015,0,0,1,.006.021.46.46,0,0,1-.12.139.175.175,0,0,1-.029.254.117.117,0,0,0,.04.1.016.016,0,0,1,.006.013.015.015,0,0,1-.016.014.119.119,0,0,1-.121-.106.212.212,0,0,1-.089-.119.191.191,0,0,1-.145.115.072.072,0,0,0,.015.065.015.015,0,0,1-.014.025.116.116,0,0,1-.1-.149c-.017-.016-.05-.062,0-.145a.335.335,0,0,1-.222.041.672.672,0,0,0-.051.074.015.015,0,0,1-.011.007.015.015,0,0,1-.017-.013A.191.191,0,0,1,345.481,132.883Z" transform="translate(-293.161 -88.592)"/>
    <path id="Path_240" data-name="Path 240" d="M369.737,118.393a.547.547,0,0,0,.339.17c.062-.047-.128-.151-.128-.174.067.057.349.278.529.2.072-.094-.128-.08-.349-.334.154.094.539.3.719.221.077-.075-.4-.311-.56-.495l-.411-.193-.56.419Z" transform="translate(-316.02 -74.94)" fill="#ef7d00"/>
    <path id="Path_241" data-name="Path 241" d="M369.4,118.035l0,0a.533.533,0,0,0,.32.164c.006-.008,0-.02-.008-.033a.486.486,0,0,0-.077-.07c-.029-.023-.052-.042-.052-.057a.015.015,0,0,1,.026-.011,1.137,1.137,0,0,0,.3.183.292.292,0,0,0,.211.013c.015-.021.009-.034-.01-.049a.632.632,0,0,0-.056-.035,1.031,1.031,0,0,1-.284-.228.015.015,0,0,1,0-.022.016.016,0,0,1,.018,0,2.11,2.11,0,0,0,.434.205.423.423,0,0,0,.268.017c.007-.01,0-.029-.028-.054a1.776,1.776,0,0,0-.219-.167,1.905,1.905,0,0,1-.313-.248l-.4-.188-.532.4.4.178Zm.329.2a.553.553,0,0,1-.349-.172l-.419-.187a.015.015,0,0,1-.009-.012.015.015,0,0,1,.006-.014l.559-.419a.015.015,0,0,1,.016,0l.41.193.006,0a1.871,1.871,0,0,0,.309.246,1.779,1.779,0,0,1,.224.171c.039.04.053.073.026.1l0,0a.443.443,0,0,1-.292-.014,1.937,1.937,0,0,1-.346-.153,1.068,1.068,0,0,0,.2.144.6.6,0,0,1,.06.037c.037.028.045.053.014.094l-.006,0a.316.316,0,0,1-.237-.011.871.871,0,0,1-.148-.074.043.043,0,0,1-.011.059A.015.015,0,0,1,369.73,118.231Z" transform="translate(-315.673 -74.594)"/>
    <path id="Path_242" data-name="Path 242" d="M364.3,93.907a2.125,2.125,0,0,1,.95-.052,2.764,2.764,0,0,0,.512-.133q.095.084.187.17a.782.782,0,0,1-.2.01c.277,0,.123.212-.339.113.221.113.139.132.139.132a1.209,1.209,0,0,1-.493-.061c.262.09.154.122.154.122a1.134,1.134,0,0,1-.39-.028c.19.052.092.085.092.085a.7.7,0,0,1-.282-.019C364.5,94.2,364.307,93.907,364.3,93.907Z" transform="translate(-311.211 -51.858)" fill="#ef7d00"/>
    <path id="Path_243" data-name="Path 243" d="M363.94,93.625a2.178,2.178,0,0,1,.957-.053h0a2.742,2.742,0,0,0,.5-.13l.027.024a2.811,2.811,0,0,1-.527.137,2.505,2.505,0,0,0-.923.042l.024.031c.064.084.2.258.289.288a.681.681,0,0,0,.274.019c.006,0,.027-.015-.041-.039a.324.324,0,0,1-.054-.017.015.015,0,0,1,.011-.028l.052.016a1.34,1.34,0,0,0,.33.012c.006,0,.029-.016-.053-.054a.279.279,0,0,1-.107-.042.015.015,0,0,1,.014-.026,1.025,1.025,0,0,1,.1.04,1.883,1.883,0,0,0,.383.021c.005,0,.023-.018-.142-.1a.015.015,0,0,1-.009-.017.015.015,0,0,1,.018-.012.7.7,0,0,0,.42-.007.078.078,0,0,0,.036-.029.015.015,0,0,0,0-.018.132.132,0,0,0-.075-.025l-.044,0a.015.015,0,1,1,0-.03l.041,0a.95.95,0,0,0,.14-.011l.028.026-.082.011.01.008a.043.043,0,0,1,.01.053.105.105,0,0,1-.05.043.643.643,0,0,1-.351.026c.149.094.057.116.056.116h0a2.173,2.173,0,0,1-.317-.01c.055.048-.017.07-.017.07h0a1.65,1.65,0,0,1-.257,0c.028.034-.036.055-.037.055h0a.717.717,0,0,1-.289-.019c-.1-.033-.238-.212-.3-.3-.018-.024-.02-.04-.025-.04a.015.015,0,0,1-.006-.029Z" transform="translate(-310.86 -51.589)"/>
    <path id="Path_244" data-name="Path 244" d="M364.4,134.284l.028.46a.309.309,0,0,1-.028.037c-.013.014-.356-.049-.309.191,0,.1,0,.124.075.179a.282.282,0,0,1-.013-.11s.1.053.191-.092c-.064.144-.019.195,0,.2.015.026-.026.142.1.14a.1.1,0,0,1-.026-.106s.135-.02.088-.244c.049-.045.069,0,.069,0s.015.134.133.106c.054.028-.009.1-.009.1a.121.121,0,0,0,.112-.065c.026-.067.056-.187-.086-.236-.017-.047.056-.051.056-.051a.26.26,0,0,1,.116.069c.026.041.017-.108-.094-.124-.137,0-.146-.03-.146-.035s-.024-.335-.034-.429Z" transform="translate(-311.004 -90.741)" fill="#ef7d00"/>
    <path id="Path_245" data-name="Path 245" d="M364.066,133.949l.027.445a.015.015,0,0,1,0,.009.309.309,0,0,1-.029.039l0,0,0,0a.148.148,0,0,1-.045,0,.66.66,0,0,0-.134.008c-.074.014-.141.055-.12.162v0a.3.3,0,0,0,.009.1.1.1,0,0,0,.026.038.26.26,0,0,1,0-.071.015.015,0,0,1,.023-.012c.007,0,.088.04.171-.088a.015.015,0,0,1,.026.015.462.462,0,0,0-.024.067h0a.166.166,0,0,0,0,.086.039.039,0,0,0,.014.024.015.015,0,0,1,.009.008.091.091,0,0,1,.006.04c0,.031,0,.075.049.088a.125.125,0,0,1-.006-.093.015.015,0,0,1,.012-.009c.008,0,.117-.025.075-.226a.015.015,0,0,1,0-.014c.065-.059.092,0,.093,0l0,0s.013.117.115.093a.015.015,0,0,1,.012,0c.043.023.03.066.014.094a.088.088,0,0,0,.066-.051.238.238,0,0,0,.019-.117.126.126,0,0,0-.1-.1.015.015,0,0,1-.009-.009c-.024-.066.069-.072.069-.072h.006a.348.348,0,0,1,.1.051.111.111,0,0,0-.087-.077.531.531,0,0,1-.107-.011c-.048-.012-.052-.032-.052-.039s-.01-.139-.019-.261q-.006-.076-.013-.152Zm0,.442-.028-.456a.015.015,0,0,1,.014-.016l.221-.014a.015.015,0,0,1,.016.013c0,.034.009.1.015.167.01.123.02.26.02.264s0,0,.029.01a.521.521,0,0,0,.1.011h0a.141.141,0,0,1,.114.1h0a.113.113,0,0,1,.006.033c0,.018-.008.028-.023.025h0a.028.028,0,0,1-.017-.014.233.233,0,0,0-.1-.062c-.009,0-.042.005-.041.024a.152.152,0,0,1,.108.121.267.267,0,0,1-.021.133.136.136,0,0,1-.126.075.015.015,0,0,1-.01,0,.015.015,0,0,1,0-.021s.045-.054.018-.075c-.118.023-.142-.1-.145-.118,0,0-.014-.015-.037,0,.038.2-.06.241-.093.251a.082.082,0,0,0,.024.082.015.015,0,0,1-.01.027c-.111,0-.113-.072-.114-.121a.2.2,0,0,0,0-.022.072.072,0,0,1-.028-.042.189.189,0,0,1,0-.095.147.147,0,0,1-.135.04.31.31,0,0,0,.013.085.015.015,0,0,1-.024.017.184.184,0,0,1-.07-.08.315.315,0,0,1-.011-.11c-.025-.131.055-.179.144-.2a.677.677,0,0,1,.141-.009c.018,0,.026,0,.028,0A.278.278,0,0,0,364.062,134.391Z" transform="translate(-310.653 -90.391)"/>
    <path id="Path_246" data-name="Path 246" d="M263.084,78.386c0-.021-.234-.313-.174-.35.06.011.158.144.238.1-.024-.052-.1-.023-.176-.155a1.391,1.391,0,0,0-.375-.619c.183.259.6.411.615.335s-.365-.361-.346-.43a1.03,1.03,0,0,0,.744.43c.019-.061-.232-.183-.3-.3a2.775,2.775,0,0,1-.675-.583,1.089,1.089,0,0,0-.337-.334.122.122,0,0,1-.029-.055c-.109-.236.035-.313.12-.325a.378.378,0,0,0,.14-.02l-.178-.063c.077.052.275.006.233.156.087-.03.271-.232-.209-.277a.579.579,0,1,0-.9.506,5.312,5.312,0,0,0-.949-.189c-.534-.141-1.088-.481-1.141-.44-.071.029.322.365.3.372a9.44,9.44,0,0,0-.943-.429c-.2-.07-.409-.233-.431-.2-.075.143.327.5.4.544s.664.291.655.294a7.345,7.345,0,0,1-1.08-.478c-.078-.016-.269-.252-.322-.237-.029.026.029.4.452.566.069.046.907.322.9.343,0,.005-.96-.362-1-.376-.185-.066-.411-.3-.454-.273s.1.276.291.355c.1.039.473.21.811.318.022.007-.607-.219-.91-.335-.137-.07-.2-.157-.223-.138s.05.391,1.022.6c.026.01.342-.069.326-.058s-.314.065-.344.063a.9.9,0,0,0-.2.026c-.01.025.062.159.563.131.064,0,.412-.116.383-.092s-.474.149-.509.152a.84.84,0,0,0-.2.035c-.007.022.12.116.389.132a3.22,3.22,0,0,0,.683-.124c-.009.009-.437.144-.448.152s-.172.016-.178.027c-.013.027.226.232.932.014-.071.088-.413.148-.413.164a.316.316,0,0,0,.2.1.681.681,0,0,0,.217,0,.914.914,0,0,0,.456-.226c.022.048-.45.267-.427.288.1.087.441-.011.464-.023a5.378,5.378,0,0,0,.651-.376c.01.048-.814.459-.8.476.053.077.334,0,.348-.011l.368-.183c.01-.005-.406.223-.369.258-.018.148.649-.1.7-.133.026-.016-.32.14-.321.214.112.173.469.118.524.08.028-.019-.032.129-.013.115a.576.576,0,0,0,.105-.136c-.009.048-.048.125-.071.212s-.03.186-.061.291c-.007.046.22-.09.187-.415.019.169-.072.485-.048.5.048.033.18-.157.193-.286a.668.668,0,0,0,.192.232.517.517,0,0,0-.031-.19,4.817,4.817,0,0,0,.025-.507c.193.338.269.481.215.74.057.022.149-.181.141-.285A.453.453,0,0,0,263.084,78.386Z" transform="translate(-209.202 -34.414)" fill="#ef7d00"/>
    <path id="Path_247" data-name="Path 247" d="M262.718,78.047l-.037-.054q-.035-.05-.067-.1c-.052-.083-.093-.167-.054-.191a.015.015,0,0,1,.011,0,.241.241,0,0,1,.084.049c.041.031.087.066.126.059a.13.13,0,0,0-.03-.017.273.273,0,0,1-.134-.122h0a1.066,1.066,0,0,1-.057-.137,1.109,1.109,0,0,0-.167-.324.8.8,0,0,1-.149-.156.015.015,0,0,1,.022-.02,1.119,1.119,0,0,1,.149.155,1.1,1.1,0,0,0,.227.141.7.7,0,0,0,.145.051c.035.007.06.007.068,0v0c.007-.03-.084-.119-.173-.207s-.185-.181-.172-.224a.015.015,0,0,1,.028,0,1.054,1.054,0,0,0,.353.312.7.7,0,0,0,.362.111.448.448,0,0,0-.119-.108.722.722,0,0,1-.174-.164,4.511,4.511,0,0,1-.457-.348.826.826,0,0,1-.221-.24,1.7,1.7,0,0,0-.211-.24.582.582,0,0,0-.119-.087l0,0a.13.13,0,0,1-.03-.057v0a.435.435,0,0,1-.038-.122.2.2,0,0,1,.024-.134.185.185,0,0,1,.081-.07.232.232,0,0,1,.065-.019h0l.057,0,.036,0-.066-.023a.2.2,0,0,1-.073-.026.015.015,0,0,1,.014-.027l.067.023.035.006a.6.6,0,0,1,.066.013c.05.014.087.04.081.1a.185.185,0,0,0,.058-.057.083.083,0,0,0,.014-.051.076.076,0,0,0-.03-.05.527.527,0,0,0-.273-.077.016.016,0,0,1-.01,0,.4.4,0,0,0-.2-.1.612.612,0,0,0-.262,0,.547.547,0,0,0-.263.139.783.783,0,0,0-.21.4l0,0a.493.493,0,0,0,.049.037.015.015,0,0,1-.016.026,4.582,4.582,0,0,0-.858-.175l-.085-.012h0a5.226,5.226,0,0,1-.823-.322,1.06,1.06,0,0,0-.3-.12l0,0,0,.009a1.318,1.318,0,0,0,.213.24.692.692,0,0,1,.095.1.016.016,0,0,1-.022.021q-.24-.128-.49-.238c-.156-.069-.306-.131-.451-.19a1.759,1.759,0,0,1-.29-.142.752.752,0,0,0-.123-.065c-.023.048.014.125.074.206a1.569,1.569,0,0,0,.322.315c.038.02.21.1.368.165.115.05.223.1.27.122l.015.006v0l.009.007v0a.013.013,0,0,1-.009.017.015.015,0,0,1-.012,0c-.442-.184-.7-.293-.856-.362a1.015,1.015,0,0,1-.225-.117.6.6,0,0,1-.167-.127.556.556,0,0,0-.138-.109.275.275,0,0,0,.02.118.641.641,0,0,0,.13.218.779.779,0,0,0,.3.2l0,0a.431.431,0,0,0,.059.027l.115.044.278.1c.12.043.239.085.324.117s.133.057.127.073h0a.015.015,0,0,1-.029,0c-.075-.019-.282-.1-.488-.174l-.231-.088-.094-.036-.174-.066h0a1.308,1.308,0,0,1-.3-.183c-.073-.054-.13-.1-.143-.092a.058.058,0,0,0,0,.028.329.329,0,0,0,.029.061.6.6,0,0,0,.254.239l.092.039c.084.036.205.088.341.142l.29.105.062.024.025.008a.015.015,0,0,1,.01.019h0a.015.015,0,0,1-.019.01h0c-.126-.041-.258-.09-.378-.137-.183-.067-.393-.144-.533-.2h0a.929.929,0,0,1-.159-.105c-.027-.021-.044-.034-.046-.035a.12.12,0,0,0,.019.067.5.5,0,0,0,.119.142,1.963,1.963,0,0,0,.876.365h.007l.092-.015.016,0,.1-.022h0c.062-.013.111-.024.118-.013h0a.014.014,0,0,1-.005.021h-.006c-.025.006-.125.027-.211.043l-.084.014a.366.366,0,0,1-.053.006h0a.741.741,0,0,0-.106.009c-.041.005-.077.006-.077.008h0a.046.046,0,0,0,.016.025.2.2,0,0,0,.068.041,1.124,1.124,0,0,0,.465.044,1.934,1.934,0,0,0,.216-.054c.09-.025.171-.048.181-.035s.006.016,0,.024-.129.046-.252.082-.247.072-.266.073l-.022,0c-.048.005-.147.017-.161.022a.133.133,0,0,0,.026.02.433.433,0,0,0,.1.047.933.933,0,0,0,.247.044h0a2.531,2.531,0,0,0,.618-.109c.042-.011.067-.018.075-.011h0a.014.014,0,0,1,0,.022.015.015,0,0,1-.008,0c-.032.014-.145.051-.25.085s-.189.062-.192.064h0a.416.416,0,0,1-.083.012l-.085.007a.141.141,0,0,0,.041.031.474.474,0,0,0,.151.049,1.582,1.582,0,0,0,.719-.087.015.015,0,0,1,.019.01.015.015,0,0,1,0,.014.824.824,0,0,1-.333.14c-.044.012-.076.007-.076.014v0a.237.237,0,0,0,.069.046.422.422,0,0,0,.114.041.481.481,0,0,0,.095.008.856.856,0,0,0,.117-.009h0a.85.85,0,0,0,.207-.064,1.06,1.06,0,0,0,.242-.159.015.015,0,0,1,.025.009c.008.041-.143.126-.271.2-.067.038-.128.071-.151.089a.281.281,0,0,0,.15.023,1.138,1.138,0,0,0,.285-.056c.015-.008.295-.152.483-.261a1.1,1.1,0,0,0,.161-.1.015.015,0,0,1,0-.011.015.015,0,0,1,.01,0,.015.015,0,0,1,.011,0,.015.015,0,0,1,.005.011c0,.006-.005.014-.016.024a4.029,4.029,0,0,1-.528.313c-.141.076-.262.125-.263.133.015.021.056.027.1.025a.906.906,0,0,0,.224-.042l.2-.1c.05-.025.116-.063.167-.083a.015.015,0,0,1,.011,0,.015.015,0,0,1,0,.028l0,0a2.468,2.468,0,0,0-.352.227c0,.005-.013,0-.011.005a.015.015,0,0,1,0,.013.024.024,0,0,0,0,.01h0c.005.013.028.019.063.019a.755.755,0,0,0,.153-.023,3.15,3.15,0,0,0,.4-.128l.047-.022.015-.006c.008-.008.014-.009.017-.006.025-.006.025,0,0,.029h0l0,0a.594.594,0,0,1-.061.027l0,0c-.088.043-.239.124-.249.168h0a.331.331,0,0,0,.268.107.537.537,0,0,0,.23-.036l0,0a.017.017,0,0,1,.026,0c.008.012,0,.046-.01.078v0l.028-.034a.412.412,0,0,0,.043-.066.015.015,0,0,1,.029.009.572.572,0,0,1-.03.092,1.154,1.154,0,0,0-.041.121c-.01.037-.017.077-.024.118a1.532,1.532,0,0,1-.033.158h0a.169.169,0,0,0,.037-.027.4.4,0,0,0,.114-.239.761.761,0,0,0,0-.115c0-.007,0-.016,0-.022a.015.015,0,0,1,.014-.017.015.015,0,0,1,.011,0,.015.015,0,0,1,.006.01.59.59,0,0,1,0,.143c-.007.073-.02.149-.032.214s-.023.133-.021.134h0a.056.056,0,0,0,.034-.018.334.334,0,0,0,.051-.06.478.478,0,0,0,.082-.2.015.015,0,0,1,.028-.006c.019.032.05.082.083.127a.419.419,0,0,0,.079.084l0-.028a.368.368,0,0,0-.026-.13.016.016,0,0,1,0-.008,4.29,4.29,0,0,0,.024-.459v-.045a.015.015,0,0,1,.016-.015.015.015,0,0,1,.013.008,2.435,2.435,0,0,1,.2.4.619.619,0,0,1,.02.329.109.109,0,0,0,.032-.033.418.418,0,0,0,.046-.09.374.374,0,0,0,.029-.145.015.015,0,0,1,.03,0,.4.4,0,0,0,.189.249.51.51,0,0,0,.127.054Zm-.012-.072a.537.537,0,0,1,.05.081.015.015,0,0,1,0,.007h0a.016.016,0,0,1-.01.013h0a.227.227,0,0,1-.076-.011.538.538,0,0,1-.134-.057.435.435,0,0,1-.179-.2.525.525,0,0,1-.024.084.447.447,0,0,1-.05.1.1.1,0,0,1-.064.048.04.04,0,0,1-.017,0,.015.015,0,0,1-.009-.017.6.6,0,0,0-.015-.332,2.088,2.088,0,0,0-.172-.349,4.256,4.256,0,0,1-.024.45.385.385,0,0,1,.027.134c0,.014,0,.032,0,.056a.016.016,0,0,1,0,.007.015.015,0,0,1-.02.008.344.344,0,0,1-.114-.108q-.034-.046-.064-.1a.56.56,0,0,1-.08.172.358.358,0,0,1-.055.065.08.08,0,0,1-.057.026.037.037,0,0,1-.017-.006c-.018-.012-.007-.078.008-.164l.007-.042a.373.373,0,0,1-.069.091.206.206,0,0,1-.044.032.04.04,0,0,1-.039,0,.02.02,0,0,1-.009-.021.012.012,0,0,1,0,0,1.389,1.389,0,0,0,.036-.169c.007-.042.014-.082.024-.121a1.1,1.1,0,0,1,.037-.111.489.489,0,0,1-.044.047l0,0a.015.015,0,0,1-.023,0h0c-.007-.01,0-.036.008-.064l.011-.038a.65.65,0,0,1-.23.032.36.36,0,0,1-.293-.12l0-.006a.014.014,0,0,1,0-.009c0-.03.046-.07.1-.108-.074.025-.156.049-.229.066a.778.778,0,0,1-.16.024c-.048,0-.081-.011-.092-.039h0a.049.049,0,0,1,0-.018c-.006-.012,0-.026.015-.042a.456.456,0,0,1,.062-.051l-.054.027a.945.945,0,0,1-.237.046.151.151,0,0,1-.13-.039v0c-.005-.01.027-.034.081-.067a1.161,1.161,0,0,1-.2.032.277.277,0,0,1-.182-.038h0c-.009-.008-.008-.018,0-.028h0a.43.43,0,0,1,.073-.049c-.03.009-.06.015-.09.021h0a.882.882,0,0,1-.121.009.5.5,0,0,1-.1-.008.457.457,0,0,1-.122-.044.24.24,0,0,1-.079-.063.015.015,0,0,1-.006-.012v0c0-.016.043-.027.1-.042a1.716,1.716,0,0,0,.239-.078,1.5,1.5,0,0,1-.638.06.5.5,0,0,1-.16-.052c-.038-.021-.057-.044-.059-.057a.024.024,0,0,1,0-.01v0c.007-.014.062-.019.112-.024a.621.621,0,0,0,.072-.009h0c.011-.005.055-.02.112-.039a1.485,1.485,0,0,1-.34.04h0a.964.964,0,0,1-.255-.046.468.468,0,0,1-.108-.051c-.026-.018-.039-.035-.04-.047v0a.023.023,0,0,1,0-.005h0c.008-.022.131-.036.188-.042l.023,0c.009,0,.052-.012.11-.029a1.122,1.122,0,0,1-.46-.047.232.232,0,0,1-.078-.048.076.076,0,0,1-.025-.045.034.034,0,0,1,0-.011h0a.228.228,0,0,1,.1-.027l.035,0a1.88,1.88,0,0,1-.8-.351.53.53,0,0,1-.126-.152.135.135,0,0,1-.02-.093.023.023,0,0,1,.009-.012c.02-.016.044,0,.084.035a.909.909,0,0,0,.154.1l.018.007a.69.69,0,0,1-.2-.215.359.359,0,0,1-.031-.066.076.076,0,0,1,0-.05.027.027,0,0,1,.011-.013c.029-.017.094.031.177.093.043.032.091.067.139.1a.732.732,0,0,1-.071-.069.668.668,0,0,1-.137-.228.264.264,0,0,1-.019-.143.028.028,0,0,1,.006-.01l.007,0c.036-.01.1.052.172.116a.568.568,0,0,0,.156.12l.008,0a.937.937,0,0,0,.22.114l.14.061a1.746,1.746,0,0,1-.284-.29c-.067-.09-.107-.18-.076-.239v0c.019-.026.079.008.163.056a1.719,1.719,0,0,0,.285.14h0c.145.059.295.12.453.191q.214.095.421.2l-.038-.038a1.294,1.294,0,0,1-.22-.25c-.009-.023-.007-.039.012-.048.035-.02.158.037.333.118a5.222,5.222,0,0,0,.818.32l.085.012a6,6,0,0,1,.786.148.018.018,0,0,1,0-.006.817.817,0,0,1,.221-.427.577.577,0,0,1,.278-.147.642.642,0,0,1,.275,0,.439.439,0,0,1,.209.1.544.544,0,0,1,.284.083.105.105,0,0,1,.041.071.114.114,0,0,1-.018.069.212.212,0,0,1-.1.082.015.015,0,0,1-.01,0,.015.015,0,0,1-.01-.019c.013-.045,0-.069-.026-.083a.016.016,0,0,1-.008.008.2.2,0,0,1-.09.018l-.055,0a.205.205,0,0,0-.056.016.156.156,0,0,0-.068.058.17.17,0,0,0-.019.114.4.4,0,0,0,.036.114l0,.005a.107.107,0,0,0,.023.044.614.614,0,0,1,.123.09,1.728,1.728,0,0,1,.218.247.015.015,0,0,1,0,.008.8.8,0,0,0,.211.225,4.419,4.419,0,0,0,.456.347l.006.006a.679.679,0,0,0,.168.158c.076.058.142.109.13.15a.015.015,0,0,1-.014.012.7.7,0,0,1-.393-.114,1.292,1.292,0,0,1-.11-.071c.07.072.127.137.119.173a.034.034,0,0,1-.009.016c-.016.016-.05.019-.1.009a.719.719,0,0,1-.152-.053,1.139,1.139,0,0,1-.16-.09,1.28,1.28,0,0,1,.119.256,1.021,1.021,0,0,0,.055.133.245.245,0,0,0,.121.11.1.1,0,0,1,.055.045h0a.015.015,0,0,1-.006.021c-.059.032-.121-.015-.176-.056a.3.3,0,0,0-.064-.041c-.008.019.026.081.067.145C262.662,77.91,262.686,77.946,262.706,77.976Zm-3.74-1.753s-.012-.005-.034-.011C258.954,76.221,258.966,76.225,258.967,76.223Zm-.649.194h0Z" transform="translate(-208.861 -34.092)"/>
    <path id="Path_248" data-name="Path 248" d="M258.121,41.825a.541.541,0,0,1-.294.085c.041.149.378.035.378.035a.828.828,0,0,1-.279.192.728.728,0,0,0,.413.008.767.767,0,0,0,.137-.131,2.337,2.337,0,0,1-.346.318c-.006.037.317.024.384-.032a1.643,1.643,0,0,1,.236-.139s-.443.283-.463.283a1.243,1.243,0,0,0,.71-.168,3.14,3.14,0,0,1-.5.291c.143.029.215.117.7-.075a1.143,1.143,0,0,0,.434-.339,2.769,2.769,0,0,1-.742.566c-.017.032.32.163.751-.248Zm0,0L256,39.594Z" transform="translate(-207.426 0)" fill="#ef7d00"/>
    <path id="Path_249" data-name="Path 249" d="M299.458,92.414a.015.015,0,0,1,.011,0,.015.015,0,0,1,.006.028.563.563,0,0,1-.28.088c.062.1.35.005.351,0a.015.015,0,0,1,.019.01.015.015,0,0,1,0,.015.983.983,0,0,1-.25.184.538.538,0,0,0,.136.016.722.722,0,0,0,.23-.024.184.184,0,0,0,.03-.022l.1-.106a.015.015,0,0,1,.021,0,.015.015,0,0,1,.005.01.015.015,0,0,1,0,.011,1.062,1.062,0,0,1-.107.11,1.944,1.944,0,0,1-.22.2l.013,0a.618.618,0,0,0,.084,0,.547.547,0,0,0,.246-.049,1.656,1.656,0,0,1,.239-.141.015.015,0,0,1,.012,0,.015.015,0,0,1,0,.028c-.015.01-.307.2-.424.262a.884.884,0,0,0,.275-.028,1.526,1.526,0,0,0,.38-.145h0a.015.015,0,0,1,.015.026c-.094.057-.164.1-.218.136a1.607,1.607,0,0,1-.245.138l.023.007c.108.032.223.066.621-.092a1.074,1.074,0,0,0,.236-.143,1.484,1.484,0,0,0,.191-.191.015.015,0,0,1,.025.018,1.089,1.089,0,0,1-.2.2q-.064.054-.131.1a4.839,4.839,0,0,1-.407.263l.024.01a.317.317,0,0,0,.083.014.858.858,0,0,0,.612-.289.015.015,0,0,1,.021,0,.015.015,0,0,1,0,.022.888.888,0,0,1-.635.3.348.348,0,0,1-.091-.016.1.1,0,0,1-.046-.028h0a.021.021,0,0,1,0-.022l.006-.006c.11-.065.217-.13.316-.2-.4.16-.523.124-.636.091l-.065-.017a.015.015,0,0,1,0-.029,1.439,1.439,0,0,0,.282-.153l.024-.015a1.628,1.628,0,0,1-.179.054.785.785,0,0,1-.331.021.015.015,0,0,1,0-.03,1.419,1.419,0,0,0,.136-.079.987.987,0,0,1-.164.018.62.62,0,0,1-.088,0c-.028,0-.047-.01-.053-.022a.022.022,0,0,1,0-.014.015.015,0,0,1,.016-.013.759.759,0,0,0,.17-.145,1.043,1.043,0,0,1-.2.014.374.374,0,0,1-.185-.037.015.015,0,0,1,.005-.027.643.643,0,0,0,.227-.146c-.1.026-.3.059-.337-.061a.015.015,0,0,1,0-.006.015.015,0,0,1,.016-.015A.523.523,0,0,0,299.458,92.414Z" transform="translate(-248.779 -50.602)"/>
    <path id="Path_250" data-name="Path 250" d="M260.461,42.716a.451.451,0,0,0,.146.222.314.314,0,0,1,.125.189Zm0,0L256,39.594Z" transform="translate(-207.434 0)" fill="#ef7d00"/>
    <path id="Path_251" data-name="Path 251" d="M361.962,113.689a.015.015,0,0,1,.03-.007.433.433,0,0,0,.14.213.329.329,0,0,1,.131.2.015.015,0,0,1-.03,0,.3.3,0,0,0-.12-.179.465.465,0,0,1-.151-.23Z" transform="translate(-308.963 -70.969)"/>
    <path id="Path_252" data-name="Path 252" d="M260.4,41.9a.4.4,0,0,0,.16.184,1.265,1.265,0,0,1,.32.339,3.708,3.708,0,0,1,.079.435Zm0,0L256,39.594Z" transform="translate(-207.436 0)" fill="#ef7d00"/>
    <path id="Path_253" data-name="Path 253" d="M360.574,94.214a.015.015,0,0,1,.029-.011.381.381,0,0,0,.154.176h0a.877.877,0,0,1,.168.146,1.083,1.083,0,0,1,.158.2v0c.009.03.037.164.057.276a.985.985,0,0,1,.022.165.015.015,0,0,1-.027.007.015.015,0,0,1,0-.011,1.075,1.075,0,0,0-.022-.156c-.02-.111-.047-.243-.056-.272a1.071,1.071,0,0,0-.152-.19.85.85,0,0,0-.161-.14h0A.415.415,0,0,1,360.574,94.214Z" transform="translate(-307.634 -52.309)"/>
    <path id="Path_254" data-name="Path 254" d="M259.66,42.073a.43.43,0,0,0,.076.513c-.224.251-.224.283-.224.283s.125.064.349-.112c.37.417.247.607.247.607Zm0,0L256,39.594Z" transform="translate(-207.43 0)" fill="#ef7d00"/>
    <path id="Path_255" data-name="Path 255" d="M339.486,98.35a.015.015,0,0,1,0-.011.015.015,0,0,1,.01-.006.015.015,0,0,1,.018.012.125.125,0,0,1-.015.058.371.371,0,0,0,.087.447.015.015,0,0,1,0,.021,2.042,2.042,0,0,0-.215.263c.036.01.146.022.32-.115a.015.015,0,0,1,.021,0c.376.425.248.624.247.625a.015.015,0,1,1-.026-.016s.115-.178-.236-.578c-.213.162-.34.111-.353.106a.015.015,0,0,1-.01-.016s0-.036.219-.281a.4.4,0,0,1-.083-.469A.145.145,0,0,0,339.486,98.35Z" transform="translate(-287.282 -56.274)"/>
    <path id="Path_256" data-name="Path 256" d="M260.078,43.07s-.034-.045.027-.212a.7.7,0,0,0,.142.1c.027.024.306.061.323.233Zm0,0L256,39.594Z" transform="translate(-207.433 0)" fill="#ef7d00"/>
    <path id="Path_257" data-name="Path 257" d="M352.665,117.258a.015.015,0,0,1,0,.011.015.015,0,0,1-.006.01.015.015,0,0,1-.021,0s-.039-.051.025-.226a.015.015,0,0,1,.026,0,.314.314,0,0,0,.1.069.209.209,0,0,1,.044.027.263.263,0,0,0,.049.018c.093.029.265.084.279.224a.015.015,0,0,1-.006.014.015.015,0,0,1-.024-.011c-.013-.121-.172-.171-.258-.2a.207.207,0,0,1-.06-.024.189.189,0,0,0-.037-.023.367.367,0,0,1-.088-.058C352.639,117.223,352.665,117.258,352.665,117.258Z" transform="translate(-300.02 -74.197)"/>
    <path id="Path_258" data-name="Path 258" d="M354.954,83.837c0-.013-.056-.123-.266.015C354.8,83.858,354.911,83.918,354.954,83.837Z" transform="translate(-301.991 -42.336)" fill="#ef7d00"/>
    <path id="Path_259" data-name="Path 259" d="M354.59,83.489l0,0a.066.066,0,0,0-.023-.021.094.094,0,0,0-.047-.011.274.274,0,0,0-.131.043l.055.01C354.507,83.518,354.564,83.53,354.59,83.489Zm.022-.021a.051.051,0,0,1,.009.024.015.015,0,0,1,0,.007c-.035.067-.1.053-.184.037a.73.73,0,0,0-.1-.014.015.015,0,0,1-.012-.007.015.015,0,0,1,0-.021.352.352,0,0,1,.185-.071.123.123,0,0,1,.062.015A.1.1,0,0,1,354.612,83.467Z" transform="translate(-301.644 -41.99)"/>
    <path id="Path_260" data-name="Path 260" d="M262.5,42.332a1.076,1.076,0,0,1-.331-.076l.356.1Zm.115.12a1.773,1.773,0,0,1-.78-.134,3.166,3.166,0,0,0,.431.24c-.139.056-.4.113-.868-.193a3.5,3.5,0,0,0,1.268.579c-.216.292-1.053-.174-1.438-.41a5.951,5.951,0,0,0,.955.556c-.056.08-.462.01-.488-.028Zm-.624-.6L256,39.594Z" transform="translate(-207.484 0)" fill="#ef7d00"/>
    <path id="Path_261" data-name="Path 261" d="M377.8,102.937a.311.311,0,0,1-.046.006,1.273,1.273,0,0,1-.143,0,2.727,2.727,0,0,1-.451-.07c.065.038.119.063.168.087s.081.038.119.06a.015.015,0,0,1,.006.021.016.016,0,0,1-.008.007.607.607,0,0,1-.316.04,1.11,1.11,0,0,1-.356-.115,2.437,2.437,0,0,0,.867.361.491.491,0,0,1,.211.075.015.015,0,0,1,0,.02c-.114.152-.383.109-.672,0a3.86,3.86,0,0,1-.382-.175,2.736,2.736,0,0,0,.558.3.015.015,0,0,1,.011,0,.015.015,0,0,1,.006.01.015.015,0,0,1,0,.012.064.064,0,0,1-.016.014.468.468,0,0,1-.258.02.71.71,0,0,1-.23-.056.037.037,0,0,1-.009-.009.015.015,0,0,1,.025-.017h0a.7.7,0,0,0,.216.05.555.555,0,0,0,.221-.007,6.754,6.754,0,0,1-.82-.472l-.146-.1-.05-.034a.157.157,0,0,1-.055-.04c-.059-.046-.035-.041.089.024h0l.069.041a5.2,5.2,0,0,0,.78.4c.271.1.521.149.629.023a.683.683,0,0,0-.186-.058,2.413,2.413,0,0,1-1.071-.511.015.015,0,0,1,0-.02.015.015,0,0,1,.021,0,1.338,1.338,0,0,0,.553.23.582.582,0,0,0,.271-.027c-.029-.015-.057-.029-.088-.043a1.834,1.834,0,0,1-.279-.156A.109.109,0,0,1,377,102.8a.015.015,0,0,1,.021-.021l.046.032a2.168,2.168,0,0,0,.55.1,1.24,1.24,0,0,0,.139,0l.023,0Zm-.08-.084-.153-.044-.024-.007a.794.794,0,0,1-.208-.06.015.015,0,0,1,.012-.028l.205.058q.052.009.1.015Z" transform="translate(-322.665 -60.472)"/>
    <path id="Path_262" data-name="Path 262" d="M262.567,42.549a2.466,2.466,0,0,1-.318,0Zm0,0L256,39.594Z" transform="translate(-207.484 0)" fill="#ef7d00"/>
    <path id="Path_263" data-name="Path 263" d="M404.907,109.675a.015.015,0,1,1,0,.03c-.032,0-.093.007-.154.008-.076,0-.151,0-.169,0a.015.015,0,1,1,0-.03c.017,0,.09,0,.164,0C404.816,109.681,404.876,109.679,404.907,109.675Z" transform="translate(-349.827 -67.141)"/>
    <path id="Path_264" data-name="Path 264" d="M257.94,41.739a2.1,2.1,0,0,0,.667.211.357.357,0,0,1-.131.064.631.631,0,0,0,.393.043c-.049.045-.114.1-.114.1a.536.536,0,0,0,.378-.035,1.45,1.45,0,0,0-.1.12l.14.008Zm0,0L256,39.594Z" transform="translate(-207.423)" fill="#ef7d00"/>
    <path id="Path_265" data-name="Path 265" d="M301.875,90.4a.015.015,0,0,1-.007-.02.015.015,0,0,1,.009-.008.015.015,0,0,1,.012,0,2.092,2.092,0,0,0,.659.21.015.015,0,0,1,.016.014.015.015,0,0,1-.006.013.326.326,0,0,1-.095.053.6.6,0,0,0,.345.026.015.015,0,0,1,.013.026q-.044.04-.091.078a.531.531,0,0,0,.339-.041.015.015,0,0,1,.02.007.015.015,0,0,1,0,.016q-.041.047-.079.1l.112.006a.015.015,0,1,1,0,.03l-.14-.008-.008,0a.015.015,0,0,1,0-.021s.02-.029.056-.073a.546.546,0,0,1-.331.011.016.016,0,0,1-.007-.005.015.015,0,0,1,0-.021s.035-.028.073-.06a.634.634,0,0,1-.334-.047l-.015-.006a.015.015,0,0,1,0-.029.377.377,0,0,0,.087-.034A2.474,2.474,0,0,1,301.875,90.4Z" transform="translate(-251.372 -48.651)"/>
  </g>
</svg>
